/* XPM */
static char *_714da415cef43dbba48f3fef3fcf32eVvkjhaphgdqA3aa3[] = {
/* columns rows colors chars-per-pixel */
"50 50 110 2 ",
"   c #172238",
".  c #19263C",
"X  c #1C2D43",
"o  c #1D3046",
"O  c #1F3248",
"+  c #223147",
"@  c #21344A",
"#  c #24384E",
"$  c #253B52",
"%  c #293E55",
"&  c #2B4057",
"*  c #2C425B",
"=  c #2E4C64",
"-  c #314762",
";  c #344966",
":  c #364D6B",
">  c #3E4E6D",
",  c #355771",
"<  c #3E5474",
"1  c #395B77",
"2  c #3B627E",
"3  c #435474",
"4  c #4C5171",
"5  c #475678",
"6  c #4C5779",
"7  c #4C597B",
"8  c #555A7D",
"9  c #595C7C",
"0  c #64627F",
"q  c #545D80",
"w  c #585F82",
"e  c #5E6184",
"r  c #477493",
"t  c #497495",
"y  c #4C7B9C",
"u  c #527194",
"i  c #5D789E",
"p  c #636385",
"a  c #666689",
"s  c #68678A",
"d  c #6C698C",
"f  c #726C8E",
"g  c #616D90",
"h  c #746E92",
"j  c #757294",
"k  c #7C7395",
"l  c #817698",
"z  c #85799A",
"x  c #8C7C9D",
"c  c #907F9F",
"v  c #8F7FA0",
"b  c #5083A6",
"n  c #5287AA",
"m  c #558AAE",
"M  c #5B89AF",
"N  c #5B8DB3",
"B  c #5C94BA",
"V  c #6383A9",
"C  c #6B87AC",
"Z  c #7582A6",
"A  c #658DB3",
"S  c #7D8EB3",
"D  c #6594BB",
"F  c #6B96BF",
"G  c #619DC6",
"H  c #65A3CC",
"J  c #68A0CA",
"K  c #71A0CA",
"L  c #67A7D1",
"P  c #6BA6D1",
"I  c #6BAAD5",
"U  c #6CADD9",
"Y  c #74A7D3",
"T  c #70A9D4",
"R  c #6FB4E1",
"E  c #71B6E4",
"W  c #73B9E6",
"Q  c #74BCEA",
"!  c #77C0F0",
"~  c #7AC4F5",
"^  c #7BC7F8",
"/  c #7FCDFF",
"(  c #8E809F",
")  c #8F84A4",
"_  c #9583A3",
"`  c #9985A6",
"'  c #9E89A9",
"]  c #8390B6",
"[  c #A38CAC",
"{  c #A88FAF",
"}  c #AD94B3",
"|  c #B097B5",
" . c #B298B7",
".. c #B59BB9",
"X. c #BA9FBC",
"o. c #BCA0BD",
"O. c #BFA2BF",
"+. c #C0A3C0",
"@. c #C2A5C2",
"#. c #C5A8C3",
"$. c #C6A8C4",
"%. c #C8AAC5",
"&. c #CAACC6",
"*. c #D5B4CD",
"=. c #D9B8D0",
"-. c #DBBAD1",
";. c #E1BFD5",
":. c #80CEFF",
">. c #80CFFF",
",. c #81D0FF",
/* pixels */
"/ / / / / / / / / / / / / / / / / / / / / / / / / / / / / / / / / / / / / / / / / / / / / / / / / / ",
"/ / / / / / / / / / / / / / / / / / / / / / / / / / / :./ / / / / / / / / / / / / / / / / / / / / / ",
"/ / / / / / / / / / / / / / / / / / / / / / :.:.T I :.:./ / / / / / / / / / / / / / / / / / / / / / ",
"/ / / / / / / / / / / / / / / / / / / / / :.:.W x 9 E :./ / / / / / / / / / / / / / / / / / / / / / ",
"/ / / / / / / / / / / / / / / / / / / / / / :.J ` > G / / / / / / / / / / / / / / / / / / / / / / / ",
"/ / / / / / / / / / / / / / / / / / / / / / :.C f - r / / / / / / / / / / / / / / / / / / / / / / / ",
"/ / / / / / / / / / / / / / / / / / / / / / ^ p d * + Q / / / / / / / / / / / / / / / / / / / / / / ",
"/ / / / / / / / / / / / / / / / / / / :./ / J ` ` e $ B / / / / / / / / / / / / / / / / / / / / / / ",
"/ / / / / / / / / / / / / :./ / / / / / / / j &.} s & $ / / / / / / / / / / / / / / / / / / / / / / ",
"/ / / / / / / / / / / / / / / / / / / / / U [ =...p - @ L / / / / / / / / / / / / / / / / / / / / / ",
"/ / / / / / / / / / / / / / / / / / / / / K O.=...s * O B / / / / / / / / / / / / / / / / / / / / / ",
"/ / / / / / / / / / / / / / / / / / / / / Z $.;.| e * O 2 / / / / / / / / / / / / / / / / / / / / / ",
"/ / / / / / / / / / / / / / / / / / / / :.z &.=.| a = O & ^ / / / / / / / / / / / / / / / / / / / / ",
"/ / / / / / / / / / / / / / / / / / / / E ( %.=.[ e * O X G / / / / / / / / / / / / / / / / / / / / ",
"/ / / :./ / / / / / / / / / / / / / / ! Z [ %.*.' s * O o X U / / / / / / / / / / / / / / / / / / / ",
"/ / / / / / / / / / / / / / / / / / ^ S ) ' O.%.[ a * O o O $ W / / / / / / / / / / / / / / / / / / ",
"/ / / / / / / / / / / / / / / / / W ) { k ' @.$.[ d - O o @ @ . H / / / / / / / / / / / / / / / / / ",
"/ / / / / / / / / / / / / / / ,.! ( } ( k ` O.$.[ d & @ o O @ $ % L / / / / / / / / / / / / / / / / ",
"/ / / / / / / / / / / / / / ,./ S [ h a d ( o.O.[ e * O o # @ % * < ^ / / / / / / / / / / / / / / / ",
"/ / / / / / / / / / / / / / / ~ x d 7 5 8 x  .O.} ; & @ o @ @ $ - 3 L / / / / / / / / / / / / / / / ",
"/ / / / / / / / / / / / / / / ^ p 3 : y u z | o.O.% & o o 2 t , + * L / / / / / / / / / / / / / / / ",
"/ / / / / / / / / / / / / / / ^ J W / / I z  .o.&.$ $ o o H / / Q G Q / / / / / / / / / / / / / / / ",
"/ / / / / / / / / / / / / / / / / / / / I l } o.o.# @ o O H / / / / / / / / / / / / / / / / / / / / ",
"/ / / / / / / / / / / / / / / / / / / / U k } ..[ o @ o O H / / / / / / / / / / / / / / / / / / / / ",
"/ / / / / / / / / / / / / / / / / / / / ~ f { ..j O @ o . ! / / / :./ / / / / / / / / / / / / / / / ",
"/ / / / / / / / / / / / / / / / / / / / ~ p ' ..p o O o . ^ / / / / / / / / / / / / / / / / / / / / ",
"/ / / / / / / / / / / / / / / / / / / / / g ` } 0 O O o = / / / / / / / / / / / / / / / / / / / / / ",
"/ / / / / / / / / / / / / / / / / / / / ,.i ( { d o @ o 2 / / / / / / / / / / / / / / / / / / / / / ",
"/ / / / / / / / / / / / / / / / / / / / / N z { k @ @ o b / / / / / / / / / / / / / / / / :./ / / / ",
"/ / / / / / / / / / / / / / / / / / / / / B j [ ` # O o B / / / / / / / / / / / / / / / / / / / / / ",
"/ / / / / / / / / / / / / / / / / / / / / ! a _ ' # @ o E / / / / / / / / / / / / / / / / / / / / / ",
"/ / / / / / / / / / / / / / / / / / / / / / 7 x ' * O & ,./ / / / / / / / / / / / / / / / / / / / / ",
"/ / / / / / / / / / / / / / / / / / / / / :.5 h ` - + $ :./ / / / / / / / / / / / / / / :./ / / / / ",
"/ / / / / / / / / / / / / / / / / / / / / / B a x % O n / / / / / / / / / / / / / / / / / / / / / / ",
"/ / / / / / / / / / / / / / / / / / / / / / M w z % O b / / / / / / / / / / / / / / / / / / / / / / ",
"/ / / / / / / / / / / / / / / / / / / / / / U q j $ O U / / / / / / / / / / / / / / / / / / / / / / ",
"/ / / / / / / / / / / / / / / / / :./ / :.:.E 6 a % X R / / / :./ / / / / / / / / / / / / / / / / / ",
"/ ,./ / / / / / / / / / / / / / / / / / / :.^ 8 q # . ^ / / / / / / / / / / / / / / / / / / / / / / ",
"/ / / / / / / / / / / / / / / / / / / / / / / 4 q %   / / / / / / / / / / / / / / / / / / / / / / / ",
"/ / / / / / / / / / / / / / / / / / / / / / :.V w % t :./ / / / / / / / / / / / / / / / / / / / / / ",
"/ / / / / / / / / / / / / / / / / / / / / / :.F h % m :./ / / / / / / / / / / / / / / / / / / / / / ",
"/ / / / / / / / / / / / / / / / / / / / / / :.Y f % G :./ / / / / / / / / / / / / / / / / / / / / / ",
"/ / / / / / / / / / / / / / / / / / / / / :.:.Z f % m :./ / / / / / / / / / / / / / / / / / / / / / ",
"/ / / / / / ,./ / / / / / / / / / / / / / Q ] x e % $ G :./ / / / / / / / / / / / / / / / / / / / / ",
"/ / / / / / / / / / / / / / / / / / / / D ) x h q % % % r Q / / / / / / / / / / / / / / / / / / / / ",
"/ / / / / / / / / / / / / / / / :.:./ A c l a e < $ % % * * I :./ / / / / / / / / / / / / / / / / / ",
"/ / / / / / / / / / / / / / / / :.:.H d p 7 3 : y y @ $ $ & ; E / / / / / / / / / / / / / / / / / / ",
"/ / / / / / / / / / / / / / / / :.:.u G G E E Q :.:.Q U H B 1 G / / / / / / / / / / / :./ / / / / / ",
"/ / / / / / / / / / / / / / / / / / / / / / / / ,./ / / / / / ,./ / / / / / / / / / / / / / / / / / ",
"/ / / / / / / / / / / / / / / / / / / / / / / / / / / / / / / / / / / / / / :./ / / / / / / / / / / "
};
