/* XPM */
static char *fa8fd87efae245b69076c5e2915e4d86BToHGUVCAYYwPWRj[] = {
/* columns rows colors chars-per-pixel */
"50 50 129 2 ",
"   c #1D3046",
".  c #1E3248",
"X  c #20344A",
"o  c #25394F",
"O  c #2A3E56",
"+  c #2B4057",
"@  c #2D435C",
"#  c #30455F",
"$  c #304660",
"%  c #3F4766",
"&  c #334965",
"*  c #3B4768",
"=  c #364C6A",
"-  c #3A4E6E",
";  c #35526C",
":  c #3F506F",
">  c #365671",
",  c #3E5272",
"<  c #3A5A76",
"1  c #3D5C7A",
"2  c #3C617E",
"3  c #444D6C",
"4  c #46516F",
"5  c #4D506B",
"6  c #435475",
"7  c #4B5474",
"8  c #475779",
"9  c #495779",
"0  c #455A7B",
"q  c #4C587B",
"w  c #525476",
"e  c #515A7D",
"r  c #645E7F",
"t  c #3E6583",
"y  c #565D80",
"u  c #595F82",
"i  c #406582",
"p  c #4D6385",
"a  c #436A8A",
"s  c #4A6A8C",
"d  c #526687",
"f  c #5D6184",
"g  c #467393",
"h  c #4E7A9D",
"j  c #616386",
"k  c #656589",
"l  c #68678B",
"z  c #6D6A8D",
"x  c #716D8E",
"c  c #796E8E",
"v  c #6F6F90",
"b  c #736D90",
"n  c #777093",
"m  c #7B7395",
"M  c #7D789A",
"N  c #527EA3",
"B  c #5D7EA2",
"V  c #607BA0",
"C  c #807595",
"Z  c #827798",
"A  c #857A9B",
"S  c #8B7D9D",
"D  c #907FA0",
"F  c #5C82A7",
"G  c #5C83A9",
"H  c #5388AD",
"J  c #5C88AE",
"K  c #5E98BF",
"L  c #6583A7",
"P  c #7C8EB1",
"I  c #6596BE",
"U  c #5F9AC1",
"Y  c #629CC4",
"T  c #6C9CC5",
"R  c #6E9FC9",
"E  c #7D97C0",
"W  c #749DC6",
"Q  c #709EC8",
"!  c #65A3CC",
"~  c #6FA2CD",
"^  c #75A1CA",
"/  c #78A1CA",
"(  c #67A6D0",
")  c #6DABD7",
"_  c #6BAEDA",
"`  c #6DB0DD",
"'  c #72B1DE",
"]  c #6FB4E0",
"[  c #72B6E4",
"{  c #72B9E6",
"}  c #76BEEE",
"|  c #78BBE9",
" . c #76C0EF",
".. c #7AC4F4",
"X. c #7FCDFF",
"o. c #8F81A0",
"O. c #9281A2",
"+. c #9A86A6",
"@. c #9B88A7",
"#. c #9B89A9",
"$. c #928DB0",
"%. c #988FB1",
"&. c #A38CAC",
"*. c #A791AE",
"=. c #AA92AF",
"-. c #AD94B3",
";. c #A09BBD",
":. c #B197B6",
">. c #B298B7",
",. c #B59BB9",
"<. c #BB9FBD",
"1. c #BDA1BE",
"2. c #81B7E5",
"3. c #81BDEC",
"4. c #C3A5C2",
"5. c #C9ABC5",
"6. c #CBACC7",
"7. c #CCADC8",
"8. c #CFAFC9",
"9. c #D0B0CA",
"0. c #D3B2CB",
"q. c #D3B3CC",
"w. c #D4B3CC",
"e. c #D7B6CD",
"r. c #DCBAD1",
"t. c #80CEFF",
"y. c #81CFFF",
"u. c #81D0FF",
"i. c #E2C0D5",
/* pixels */
"X.X.X.X.X.X.X.X.X.X.X.X.X.X.X.X.X.X.X.X.X.X.X.X.X.X.X.X.X.X.X.X.X.X.X.X.X.X.X.X.X.X.X.X.X.X.X.X.X.X.",
"X.X.X.X.X.X.X.X.X.X.X.X.X.X.X.X.X.X.X.t.X.X.X.X.X.X.X.X.X.X.X.X.X.X.X.X.t.X.X.X.X.X.X.X.X.X.X.X.X.X.",
"X.X.X.X.X.X.X.X.X.X.X.X.X.X.X.X.X.X.X.X.X.X.X.X.X.X.X.X.X.X.X.X.X.X.X.X.X.X.X.X.X.X.X.X.X.X.X.X.X.X.",
"X.X.X.X.X.X.X.X.X.X.X.X.X.X.X.X.X.X.X.X.X.X.X.X.X.X.X.X.t.X.X.X.X.X.X.X.X.X.X.X.X.X.X.X.X.X.X.X.X.X.",
"X.X.X.X.X.X.X.X.X.X.X.X.X.X.X.X.X.X.X.X.X.X.X.X.X.X.X.X.X.X.X.X.X.X.X.X.X.X.X.X.X.X.X.X.X.X.X.X.X.X.",
"X.X.X.X.X.X.X.X.X.X.X.X.X.X.X.X.X.X.X.X.X.X.X.X.X.X.X.X.X.X.X.X.X.X.X.X.X.X.X.X.X.X.X.X.X.X.X.X.X.X.",
"X.X.X.X.X.X.X.X.X.X.X.X.X.X.X.X.X.X.X.X.X.X.X.X.X.X.X.X.X.X.X.X.X.X.X.X.X.X.X.X.X.X.X.X.X.X.X.X.t.X.",
"X.X.X.X.X.X.X.X.X.X.X.X.X.X.X.X.X.X.X.X.X.X.X.X.X.X.X.X.X.X.X.X.X.X.X.X.X.X.X.X.X.X.X.X.X.X.X.X.X.X.",
"X.X.X.X.X.X.X.X.X.X.X.X.X.X.X.X.X.X.X.X.X.X.X.X.X.X.X.X.X.X.X.X.X.X.X.X.X.X.X.X.X.X.X.X.X.X.X.X.X.X.",
"X.X.X.X.X.X.X.X.X.X.X.X.X.X.X.X.X.X.X.X.X.t.X.X.X.X.X.X.X.X.X.X.X.X.X.X.X.X.X.X.X.X.X.X.X.X.X.X.X.X.",
"X.X.X.X.X.X.X.X.X.X.X.X.X.X.X.X.X.X.X.X.X.X.X.X.X.X.X.X.X.X.X.X.X.X.X.X.X.X.X.X.X.X.X.X.X.X.X.X.X.X.",
"X.X.X.X.X.X.X.X.X.X.X.X.X.X.X.X.X.X.X.X.X.X.X.X.X.X.X.X.X.X.X.X.X.X.X.X.X.X.X.X.X.X.X.X.X.X.X.X.X.X.",
"X.X.X.X.X.X.X.X.X.X.X.X.X.X.X.X.X.X.X.X.X.X.X.X.X.X.u.u.u.X.X.X.t.X.X.X.X.X.X.X.X.X.X.X.X.X.X.X.X.X.",
"X.X.X.X.X.X.X.X.X.X.X.X.X.X.t.X.X.X.X.X.X.X.X.X.X...< ; > ..X.X.X.X.X.X.X.X.X.X.X.X.X.X.X.X.X.X.X.X.",
"t.X.X.X.X.X.X.X.X.X.X.X.X.X.X.X.X.X.X.X.X.X.X.X.X.B @ . . } X.X.X.X.X.X.X.X.X.X.X.X.X.X.X.X.X.t.X.X.",
"X.X.X.X.X.X.X.X.X.X.X.X.X.X.X.X.X.X.X.X.X.X.X.X.W 3 . . t t.X.X.X.X.X.X.X.X.X.X.X.X.X.X.X.X.X.X.X.X.",
"X.X.X.X.X.X.X.X.X.X.X.X.X.X.X.X.X.X.X.X.X.X.X.2.C X     F X.X.X.X.X.X.X.X.X.X.X.X.X.X.X.X.X.X.X.X.X.",
"X.X.X.X.X.X.X.X.X.X.X.X.X.X.X.X.X.X.X.X.X.X...>.4 .   X g X.X.X.X.X.X.X.X.X.X.X.X.X.X.X.X.X.X.X.X.X.",
"X.X.X.X.X.X.X.X.X.X.X.X.X.X.X.X.X.X.X.X.t.| ;.&.- o X X o  .X.X.X.X.X.X.X.X.X.X.X.X.X.X.X.X.X.X.X.X.",
"X.X.X.X.X.X.X.X.X.X.X.X.X.X.X.t.X.u.X.' / &.0.:.m k e e 7 d J ' _ _ _ _ X.X.t.X.X.X.X.X.X.X.X.X.X.X.",
"X.X.X.X.X.X.X.X.X.X.X.X.t.X.X.X.~ v #.<.6.w.8.<.=.&.o.A A A o.o.+.+.+.D A m V ! X.X.t.X.X.X.X.X.X.X.",
"X.X.X.X.X.X.X.X.X.X.| [ R E S &.1.6.8.8.4.1.:.D S S A A A A o.O.*.-.:.-.&.+.D Z r F ! ..X.X.X.t.X.X.",
"X.X.X.X.X.X.X.X.X.T +.-.<.4.6.0.6.1.>.-.@.S M z l z l l l z z z b b b b v k j j f q e 0 _ t.t.t.X.X.",
"X.X.X.X.X.X.X.X.P 5.r.0.7.7.4.-.&.O.S M x x u e 8 q q 8 q 8 q q 9 9 6 6 , , , - = = ; 8 - w c p X.X.",
"X.X.X.X.X.X.X.^ e.i.w.4.,.&.O.Z v k k y e 9 6 - = - ; - = & & & & & & & $ & & & & & & & & : q U X.X.",
"X.X.X.X.X.X.X.%.0.1.1.,.@.n j y 6 6 , = = $ & $ $ @ $ $ $ $ $ $ # $ & - $ # i t 2 U ! ; + @ @ K X.X.",
"X.X.X.X.X.3.$.l S n c C x q , & & & @ @ @ @ # @ # @ @ $ $ $ & = ; 8 - g ! { u.t.X.X.X.] . o + < X.X.",
"X.X.X. .;.0.-.Z u 6 5 O * $ @ @ O O @ @ @ $ $ $ $ & = & = 6 8 6 1 h ` X.t.t.t.t.X.X.X.X.! o @ & ! X.",
"X.X.t.R :.S k q y u u q 6 - & # # O $ = & , 6 q 8 q u u y 3 a ! ..X.X.X.X.X.X.X.X.X.X.X.X.! & * s X.",
"X.X.t.~ m x m Z A m b z u u 6 = = & @ 6 u l k l j f e < Y  .X.X.X.X.X.X.X.X.X.X.X.X.X.X.X.X.X...X.X.",
"X.X.X.' N F I ' T F G N 3 3 7 6 u j 6 = % 3 F F Y ) [ X.X.X.X.X.X.X.X.X.X.X.X.X.X.X.X.X.X.X.X.X.X.X.",
"X.X.t.t.u.t.u.u.t.t.t.t.} [   4 A -.C 7 _ ..X.t.t.t.X.X.X.X.X.X.X.X.X.X.X.X.X.X.X.X.X.X.X.X.X.X.X.X.",
"X.X.X.X.X.X.X.X.X.X.X.X.X.t.t @ M ,.,.o.d ..X.X.X.X.X.X.X.X.X.X.X.X.X.X.X.X.X.X.X.X.X.X.X.X.X.X.X.X.",
"X.X.X.X.X.X.X.X.X.X.X.X.X.X.( H ..L S &.A ) X.X.X.X.X.X.X.X.X.X.X.X.X.X.X.X.X.X.X.X.X.X.X.X.X.X.X.X.",
"X.X.X.X.X.X.X.X.X.X.X.X.X.X.X.} X.X._ ( (  .X.X.X.X.X.X.X.X.X.X.X.X.X.X.X.X.X.X.X.X.X.X.X.X.X.X.X.X.",
"X.X.X.X.X.X.X.X.X.X.X.X.X.X.X.X.X.X.X.X.X.X.X.X.X.X.X.X.X.X.X.X.X.X.X.X.X.X.X.X.X.X.X.X.X.X.X.X.X.X.",
"X.X.X.X.X.X.X.X.X.X.X.X.X.X.X.X.X.X.X.X.X.X.X.X.X.X.X.X.X.X.X.X.X.X.X.X.X.X.X.X.X.X.X.X.X.X.X.X.X.X.",
"X.X.X.X.X.X.X.X.X.X.X.X.X.X.X.X.X.X.X.X.X.X.X.X.X.X.X.X.X.X.X.X.X.X.X.X.X.X.X.X.X.X.X.X.X.X.X.X.X.X.",
"X.X.X.X.X.X.X.X.X.X.X.X.X.X.X.X.X.X.X.X.X.X.X.X.X.X.X.X.X.X.X.X.X.X.X.X.X.X.X.X.X.X.X.X.X.X.X.X.X.X.",
"X.X.X.X.X.X.X.X.X.X.X.X.X.X.X.X.X.X.X.X.X.X.X.X.X.X.X.X.X.X.X.X.X.X.X.X.X.X.X.X.X.X.X.X.X.X.X.X.X.X.",
"X.X.X.X.X.X.X.X.X.X.X.X.X.X.X.X.X.X.X.X.X.X.X.X.X.X.X.X.X.X.X.X.X.X.X.X.X.X.X.X.X.X.X.X.X.X.X.X.X.X.",
"X.X.X.X.X.X.X.X.X.X.X.X.X.X.X.X.X.X.X.X.X.X.X.X.X.X.X.X.X.X.X.X.X.X.X.X.X.X.X.X.X.X.X.X.X.X.X.X.X.X.",
"X.X.X.X.X.X.X.X.X.X.X.X.X.X.X.X.X.X.X.X.X.X.X.X.X.X.X.X.X.X.X.X.X.X.X.X.X.X.X.X.X.X.X.X.X.X.X.X.X.X.",
"X.X.X.X.X.X.X.X.X.X.X.X.X.X.X.X.X.X.X.X.X.X.X.X.X.X.X.X.X.X.X.X.X.X.X.X.X.X.X.X.X.X.X.X.X.X.X.X.X.X.",
"X.X.X.X.X.X.X.X.X.X.X.X.X.X.X.X.X.X.X.X.X.X.X.X.X.X.X.X.X.X.X.X.X.X.X.X.X.X.X.X.X.X.X.X.X.X.X.X.X.X.",
"X.X.X.X.X.X.X.X.X.X.X.X.X.X.X.X.X.X.X.X.X.X.X.X.X.X.X.X.X.X.X.X.X.X.X.X.X.X.X.X.X.X.X.X.X.X.X.X.X.X.",
"X.X.X.X.X.X.X.X.X.X.X.X.X.X.X.X.X.X.X.X.X.X.X.X.X.X.X.X.X.X.X.X.X.X.X.X.X.X.X.X.X.X.X.X.X.X.X.X.X.X.",
"X.X.X.X.X.X.X.X.X.X.X.X.X.X.X.X.X.X.X.X.X.X.X.X.X.X.X.X.X.X.X.X.X.X.X.X.X.X.X.X.X.X.X.X.X.X.X.X.X.u.",
"X.X.X.X.X.X.X.X.X.X.X.X.X.X.X.X.X.X.X.X.X.X.X.X.X.X.X.X.X.X.X.X.X.X.X.X.X.X.X.X.X.X.X.X.X.X.X.X.X.X.",
"X.X.X.X.X.X.X.X.X.X.X.X.X.X.X.X.X.X.X.X.X.X.X.X.X.X.X.X.X.X.X.X.X.X.X.X.X.X.X.X.X.X.X.X.X.X.X.X.X.X."
};
