/* XPM */
static char *c468dd7b7cf94a6abaa032d95a4aa75abMT22nGSFPdZ6puM[] = {
/* columns rows colors chars-per-pixel */
"50 50 127 2 ",
"   c #19273F",
".  c #1D3046",
"X  c #1E3248",
"o  c #20344A",
"O  c #25394F",
"+  c #263A51",
"@  c #2A3E56",
"#  c #2B4057",
"$  c #2D435C",
"%  c #30455F",
"&  c #304660",
"*  c #334965",
"=  c #364C6A",
"-  c #3A4E6E",
";  c #35526C",
":  c #3F506F",
">  c #365671",
",  c #3E5272",
"<  c #3A5A76",
"1  c #3D5C7A",
"2  c #3C617E",
"3  c #444D6C",
"4  c #46516F",
"5  c #4D506B",
"6  c #435475",
"7  c #4B5474",
"8  c #475779",
"9  c #495779",
"0  c #455A7B",
"q  c #4C587B",
"w  c #525476",
"e  c #515A7D",
"r  c #645E7F",
"t  c #3E6583",
"y  c #565D80",
"u  c #595F82",
"i  c #406582",
"p  c #4D6385",
"a  c #436A8A",
"s  c #4A6A8C",
"d  c #526687",
"f  c #5D6184",
"g  c #467393",
"h  c #4E7A9D",
"j  c #616386",
"k  c #656589",
"l  c #68678B",
"z  c #6D6A8D",
"x  c #716D8E",
"c  c #796E8E",
"v  c #736D90",
"b  c #777093",
"n  c #7B7395",
"m  c #7D789A",
"M  c #5D7EA2",
"N  c #607BA0",
"B  c #807595",
"V  c #827798",
"C  c #857A9B",
"Z  c #8B7D9D",
"A  c #907FA0",
"S  c #5C82A7",
"D  c #5C83A9",
"F  c #5388AD",
"G  c #5C88AE",
"H  c #558CB0",
"J  c #5E98BF",
"K  c #6583A7",
"L  c #7C8EB1",
"P  c #6596BE",
"I  c #5F9AC1",
"U  c #629CC4",
"Y  c #6C9CC5",
"T  c #6E9FC9",
"R  c #749DC6",
"E  c #709EC8",
"W  c #65A3CC",
"Q  c #6FA2CD",
"!  c #75A1CA",
"~  c #78A1CA",
"^  c #67A6D0",
"/  c #6DABD7",
"(  c #6BAEDA",
")  c #6DB0DD",
"_  c #72B1DE",
"`  c #6FB4E0",
"'  c #72B6E4",
"]  c #72B9E6",
"[  c #76BEEE",
"{  c #78BBE9",
"}  c #76C0EF",
"|  c #7AC4F4",
" . c #7FCDFF",
".. c #8F81A0",
"X. c #9281A2",
"o. c #9A86A6",
"O. c #9B88A7",
"+. c #9B89A9",
"@. c #928DB0",
"#. c #988FB1",
"$. c #A38CAC",
"%. c #A791AE",
"&. c #AA92AF",
"*. c #AD94B3",
"=. c #A09BBD",
"-. c #B197B6",
";. c #B298B7",
":. c #B59BB9",
">. c #BB9FBD",
",. c #BDA1BE",
"<. c #A09FC0",
"1. c #81B7E5",
"2. c #81BDEC",
"3. c #C3A5C2",
"4. c #C9ABC5",
"5. c #CCADC8",
"6. c #CFAFC9",
"7. c #D0B0CA",
"8. c #D2B2CB",
"9. c #D3B2CB",
"0. c #D4B3CC",
"q. c #D4B4CD",
"w. c #D7B6CD",
"e. c #DCBAD1",
"r. c #80CEFF",
"t. c #81D0FF",
"y. c #E2C0D5",
/* pixels */
" . . . . . . . . . . . . . . . . . . . . . . . . . . . . . . . . . . . . . . . . . . . . . . . . . .",
" . . . . . . . . . . . . . . . . . . .r. . . . . . . . . . . . . . . . . . . . . . . . . . . . . . .",
" . . . . . . . . . . . . . . . . . . . . . . . . . . . . . . . . . . . . . . . . . . . . . . . . . .",
" . . . . . . . . . . . . . . . . . . . . . . . . . . . .r. . . . . . . . . . . . . . . . . . . . . .",
" . . . . . . . . . . . . . . . . . . . . . . . . . . . . . . . . . . . . . . . . . . . . . . . . . .",
" . . . . . . . . . . . . . . . . . . . . . . . . . . . . . . . . . . . . . . . . . . . . . . . . . .",
" . . . . . . . . . . . . . . . . . . . . . . . . . . . . . . . . . . . . . . . . . . . . . . . . . .",
" . . . . . . . . . . . . . . . . . . . . . . . . . . . . . . . . . . . . . . . . . . . . . . . . . .",
" . . . . . . . . . . . . . . . . . . . . . . . . . . . . . . . . . . . . . . . . . . . . . . . . . .",
" . . . . . . . . . . . . . . . . . . . . . . . . . . . . . . . . . . . . . . . . . . . . . . . . .r.",
" . . . . . . . . . . . . . . . . . . . . . . . . . . . . . . . . . . . . . . . . . . . . . . . . . .",
" . . . . . . . . . . . . . . . . . . . . . . . . . . . . . . . . . . . . . . . . . . . . . . . . . .",
" . . . . . . . . . . . . . . . . . . . . .t.t.t. . . . . . . . . . . . . . . . . . . . . . . . . . .",
" . . . . . . . . . . . . . .r. . . . . .| > ; < |  .r. . . . . . . . . . . . . . . . . . . . . . . .",
"r. . . . . . . . . . . . . . . . . . . .] X o # M  . . . . . . . . . . . . . . . . . . . . . . . . .",
" . . . . . . . . . . . . . . . . . . . . .a X X 3 R  . . . . . . . . . . . . . . . . . . . . . . . .",
" . . . . . . . . . . . . . . . . . . . . .F X . X B 1. . . . . . . . . . . . . . . . . . . . . . . .",
" . . . . . . . . . . . . . . . . . . . . .g . . . 4 :.|  . . . . . . . . . . . . . . . . . . . . . .",
" . . . . . . . . . . . . . . . . . . .t.} O X o O - %.=.{  . . .r. .r.r. . . . . . . . . . . . . . .",
" . . . . . . . . . . . . . .( ( ) ) _ G d 7 e e k n -.9.$.~ _  .r. .r.r. . . . . . . . . . . . . . .",
" . . . . . . . . . .W N n C Z O.o.o.....C C C ..$.*.>.7.9.4.,.O.v E r.|  .r. .r. . . . . . . . . . .",
" . . . . . .| W D r B A o.$.-.-.*.%.X...C C C C C Z X.*.,.3.5.5.5.,.$.A L E ' [  . . . . . . . . . .",
" . . . . .) 0 q q f j j k z v v z b z z z l l l l l z n Z O.*.;.,.5.7.5.4.=.*.o.T  . . . . . . . . .",
" . .p c w 3 6 , = = = , 6 , 8 0 6 8 q q q q q q 9 q e f x x n ....$.*.3.9.q.0.e.4.L  . . . . . . . .",
" . .U q : * * * * * * * * * * * * * * * = = = - - - 6 , 8 9 e k k l B X.$.:.3.q.y.w.! t. . . . . . .",
" . .J $ # @ ; W I 2 t i % & * * * & & & & & & & & $ & * * = = 6 8 9 y j n O.;.>.,.q.#.|  . . . . . .",
" . .< @ + X ]  . .r. . .{ W a : 8 = = * & & & $ $ $ $ & $ & $ $ * * * - q v B n b ..z @.2. . . . . .",
" .W * $ @ U  . . . . . . . . .) h 1 , 0 , - = * * & & & & $ $ # # # $ $ & * @ 5 6 e V &.9.=.}  . . .",
" .s * ; U  . . . . . . . . . . . .| W a 3 e f y q 8 q 6 , * * & # $ * % ; 6 q y f e q l ..&.Q  . . .",
" . . . . . . . . . . . . . . . . . . . .[ U , y f j l k l u 6 & * = = 0 f f l b n C V B x c Q  . . .",
" . . . . . . . . . . . . . . . . . . . . . .r.' ( U M S 3 3 * 8 f f 8 7 3 3 S S S Y _ P D S ]  . . .",
" . . . . . . . . . . . . . . . . . . . . .r.r. . .r. . .| ( 7 B %.V 4   ' |  .t. . .t.t. . . . . . .",
" . . . . . . . . . . . . . . . . . . . . . . . . . . . .| d X.;.:.m $ t  . . . . . . . . . . . . . .",
" . . . . . . . . . . . . . . . . . . . . . . . . . . . ./ C $.Z K | H W  . . . . . . . . . . . . . .",
" . . . . . . . . . . . . . . . . . . . . . . . . . . . .[ W W )  . .}  . . . . . . . . . . . . . . .",
" . . . . . . . . . . . . . . . . . . . . . . . . . . . . . . . . . . . . . . . . . . . . . . . . . .",
" . . . . . . . . . . . . . . . . . . . . . . . . . . . . . . . . . . . . . . . . . . . . . . . . . .",
" . . . . . . . . . . . . . . . . . . . . . . . . . . . . . . . . . . . . . . . . . . . . . . . . . .",
" . . . . . . . . . . . . . . . . . . . . . . . . . . . . . . . . . . . . . . . . . . . . . . . . . .",
" . . . . . . . . . . . . . . . . . . . . . . . . . . . . . . . . . . . . . . . . . . . . . . . . . .",
" . . . . . . . . . . . . . . . . . . . . . . . . . . . . . . . . . . . . . . . . . . . . . . . . . .",
" . . . . . . . . . . . . . . . . . . . . . . . . . . . . . . . . . . . . . . . . . . . . . . . . . .",
" . . . . . . . . . . . . . . . . . . . . . . . . . . . . . . . . . . . . . . . . . . . . . . . . . .",
" . . . . . . . . . . . . . . . . . . . . . . . . . . . . . . . . . . . . . . . . . . . . . . . . . .",
" . . . . . . . . . . . . . . . . . . . . . . . . . . . . . . . . . . . . . . . . . . . . . . . . . .",
" . . . . . . . . . . . . . . . . . . . . . . . . . . . . . . . . . . . . . . . . . . . . . . . . . .",
" . . . . . . . . . . . . . . . . . . . . . . . . . . . . . . . . . . . . . . . . . . . . . . . . . .",
" . . . . . . . . . . . . . . . . . . . . . . . . . . . . . . . . . . . . . . . . . . . . . . . . . .",
" . . . . . . . . . . . . . . . . . . . . . . . . . . . . . . . . . . . . . . . . . . . . . . . . . .",
" . . . . . . . . . . . . . . . . . . . . . . . . . . . . . . . . . . . . . . . . . . . . . . . . . ."
};
