/* XPM */
static char *_87a36ec28174383f26e6f37033dfc06F9JuwWMQFtVnWFIw[] = {
/* columns rows colors chars-per-pixel */
"50 50 4 1 ",
"  c #7DCBFF",
". c #7FCBFF",
"X c #7CCEFF",
"o c #7FCEFF",
/* pixels */
"oooooooooooooX.oo Xoooo oooXoo o.oo.XoX.XX.o.oXo.X",
"ooooo.o.oooo.oXo.oooooXoooXXooo o XXX.o.o.Xooo.ooo",
"oo..o.oo.XooXoo. o oooXooooXooooooooooXoX.oo.X.  .",
".oooooo.oo...oooooo.o.oo.oo..o.oX.oooo.oooooooXo.X",
"ooo...oo.oooooo.o.oo.oo.ooo.oo ooXo.ooooooooXoo.oo",
"..ooooo.oo.o..oooo.o.oo...oo.oo..o.oo.ooo..ooooooo",
"oo.oooo.o.o.oo.o..oooooooo.oooo..oooo..XXoooo.ooX.",
"o.oo..ooo.ooo.ooooo.o..oo.oo..oooo..oooo.o.oooo.oo",
"oo.o.ooo..oooo...oooooo.o.oo..oo.ooo.oo.ooo.ooo..o",
".o.ooo.oooo..ooooo....oooo.oooo.oo.o.oo...ooo.oooo",
"o.ooo.o.ooo..oooo.oooo.o..ooooo.o.o.oooooo.o.oooo.",
"ooo.o.oo..oooo..oo.oo.ooooo...ooo.ooo..oo.oo.o.o.o",
".oo.oo.ooo.oo.oo..oooo...oooooo.o.ooo..ooo.oo.oooo",
".oo.o.ooo.oooo.oooo..ooooo..o.ooo.o.oooo.o.oo.o.o.",
"oooooo..oo....ooooo..oooo.oo.o.ooo.o.oo.o.oooo.ooo",
"o..o.ooo.oooooo...oooo..oo.ooo.o.ooo.oo.ooo..ooo.o",
"o..o.ooo.oooooo.ooo.o.ooo.oo..ooo.ooo.oo..oooo...o",
"oooooo..oo....ooo.ooo.o.oo.oooo.o.o.oo.oooo..ooooo",
".oo.o.ooo.oooo.o.o.ooo.o..ooooo.oo.o..ooooo..oooo.",
".oo.oo.ooo.oo.oooo.o.oooooo...oo.oooooo...oooo..oo",
"ooo.o.oo..oooo..o.oo.oo..oooooo.oo...ooooo.oo.oo..",
"o.ooo.o.ooo..ooooo.o.oo.oo..o.oo.ooooo..o.oooo.ooo",
".o.ooo.oooo..ooo..ooooooo.oo.o.o.oooo.oooo....oo.o",
"oo.o.ooo..oooo..ooo.o..ooo.ooo.ooo..oo.o.oooooo.oo",
"o.oo..ooo.ooo.ooo..o.ooo.oo.ooo.oo..oo.o.oooooo.o.",
"oo.oooo.o.o.oo.ooooooo...oo.o.oo.oooo.oooo....oooo",
"..ooooo.oo.o..oo.oo.o.oooooo.o.o.ooooo..o.oooo.o..",
"ooo...oo.oooooo..oo.oo.oo..ooo.ooo...ooooo.oo.oooo",
".oooooo.oo...oooooo.o.ooo..ooo.o.oooooo...oooo...o",
"oo..o.oo.ooooo..o.ooo.o.oooo.o.ooo.o..ooooo..ooooo",
"o.oo.o.o.oooo.oo.o.ooo.o.oo.o.ooo.o.oo.oooo..oooo.",
"oo.ooo.ooo..oo.ooo.o.ooo.oo.ooo.o.ooo.oo..oooo..oo",
"..oooo..oo.ooo.ooo..oo.ooo.o.ooo..oooo..oo.ooo.oo.",
"ooo..oooo.oo.o.o.oooo.oo.o.ooo.oooo..oooo.oo.o.oo.",
"ooo..ooooo..o.oo.ooooo..o.ooo.o.ooo..ooooo..o.oooo",
"..oooo...oooooo.oo...oooooo.o.oo..oooo...oooooo..o",
"oo.oo.ooooo...oo.oooooo..oo.oo.ooo.oo.ooooo...oo.o",
"o.oooo.o..ooooo.oo.o..oo.oo.o.ooo.oooo.o..ooooo.oo",
"oo....oooo.oooo.o.o.oo.ooooooo..oo....oooo.oooo.o.",
".oooooo.o.oo..ooo.ooo.ooo..o.ooo.oooooo.o.oo..ooo.",
".oooooo.o.oo..oo.ooo.oo.ooo.o..oooo.o..oo.oo..oooo",
"oo....oooo.oooo.oo.o.oo...oooooo..oooooooo.oooo..o",
"o.oooo.o..ooooo.o.o.oooooo.o.oo.oo.o.oo...ooooo..o",
"oo.oo.ooooo...ooo.ooo..oo.oo.oo.o.oo.oo.ooo...oooo",
"..oooo...oooooo.o.ooo..ooo.o.ooooo.o.oooooo.ooo.o.",
"ooo..ooooo..o.ooo.o.oooo.o.ooo.o.o.ooo.o..ooo.oo.o",
"ooo..oooo.oo.o.ooo.o.oo.o.ooo.o.o.ooo.o.oo.ooo.o o",
"..oooo..oo.ooo.o.ooo.oo.ooo.o.ooooo.o.ooo.oo..oooo",
"oooo..oooo..oooo.o.ooo.o.ooo.o.o.o.ooo.o.ooo.ooooo",
"o..oooo..oooo..o.ooo.o.ooo.o.ooo.ooo.o.ooo.Xoo.o.o"
};
