/* XPM */
static char *d85692dfec6646f594e7da2c18d81f1a21g3IuHADhEBbsmQ[] = {
/* columns rows colors chars-per-pixel */
"50 50 2 1 ",
"  c red",
". c #7FCDFF",
/* pixels */
"..................................................",
"....                                    ..........",
"....                                     .........",
"......                                   .........",
".......                                  .........",
".........                                .........",
"..........          ............         .........",
"..........          .............        .........",
"..........          ...............      .........",
"..........          ................     .........",
"..........          ................     .........",
"..........          .................    .........",
"..........          ...........  ....    .........",
"..........          ...........  .....   .........",
"..........          ..........   .....   .........",
"..........          ..........   .....  ..........",
"..........          ..........   .................",
"..........          .........    .................",
"..........          ........     .................",
"..........          .......      .................",
"..........          .....        .................",
"..........                       .................",
"..........                       .................",
"..........                       .................",
"..........                       .................",
"..........          ......       .................",
"..........          ........     .................",
"..........          .........    .................",
"..........          .........    .................",
"..........          ..........   .................",
"..........          ..........   .................",
"..........          ..........   .................",
"..........          ...........  ..........  .....",
"..........          ...........  ..........  .....",
"..........          ......................   .....",
"..........          ......................   .....",
"..........          .....................    .....",
"..........          ....................    ......",
"..........          ....................    ......",
"..........          ...................     ......",
"..........          ..................     .......",
"..........          ................       .......",
"..........          ...............        .......",
"..........          .............         ........",
".........               .....             ........",
".......                                   ........",
".....                                    .........",
"....                                     .........",
"....                                     .........",
".................................................."
};
