/* XPM */
static char *_1098bf64a254d6d98a5d13c9fbf3b90XawJ88eZ6gzmaMG4[] = {
/* columns rows colors chars-per-pixel */
"50 50 191 2 ",
"   c #1B1D15",
".  c #5B711C",
"X  c #7A6E2B",
"o  c #62174B",
"O  c #7A1A5B",
"+  c #5D3C54",
"@  c #7D255E",
"#  c #732C58",
"$  c #693354",
"%  c #7A325E",
"&  c #7F2E60",
"*  c #7C3260",
"=  c #7A3B64",
"-  c #384047",
";  c #75485E",
":  c #7A4568",
">  c #705766",
",  c #6E7560",
"<  c #875411",
"1  c #B56F0D",
"2  c #965E33",
"3  c #AB692E",
"4  c #C57602",
"5  c #CD7C08",
"6  c #80275D",
"7  c #8A0D65",
"8  c #950D6C",
"9  c #831361",
"0  c #881363",
"q  c #861863",
"w  c #95126E",
"e  c #95176E",
"r  c #9C1373",
"t  c #A01376",
"y  c #A61479",
"u  c #AA147D",
"i  c #833A65",
"p  c #92554E",
"a  c #8E6A4A",
"s  c #926B5D",
"d  c #977855",
"f  c #A37649",
"g  c #87466B",
"h  c #854B68",
"j  c #8E5F65",
"k  c #905469",
"l  c #974E79",
"z  c #8B5975",
"x  c #935374",
"c  c #955877",
"v  c #9C537C",
"b  c #946765",
"n  c #9A637C",
"m  c #AD7569",
"M  c #B07968",
"N  c #AE6C7A",
"B  c #AF7271",
"V  c #718F10",
"C  c #7A9927",
"Z  c #77913E",
"A  c #9C950E",
"S  c #9A8818",
"D  c #AA9B0F",
"F  c #A89A14",
"G  c #89AD1A",
"H  c #B3AA0D",
"J  c #AEA719",
"K  c #B3AA19",
"L  c #B9AF1B",
"P  c #BDB419",
"I  c #968C33",
"U  c #A2933A",
"Y  c #B3A928",
"T  c #D58103",
"R  c #DB8400",
"E  c #C29A15",
"W  c #E58A01",
"Q  c #EE9001",
"!  c #F39200",
"~  c #D2B60E",
"^  c #C5BB19",
"/  c #E4BC06",
"(  c #F0BF09",
")  c #C69C32",
"_  c #CCA32E",
"`  c #CEC30D",
"'  c #D9C607",
"]  c #D5CA16",
"[  c #D1C618",
"{  c #EDC407",
"}  c #E9D802",
"|  c #F4D702",
" . c #FFD301",
".. c #FEDC00",
"X. c #E3D516",
"o. c #EBDC16",
"O. c #F5E501",
"+. c #FFE400",
"@. c #FFEC00",
"#. c #F7E90B",
"$. c #F5E616",
"%. c #F7E916",
"&. c #FCEB16",
"*. c #998545",
"=. c #919A4E",
"-. c #A38D49",
";. c #AE8B4D",
":. c #AAA559",
">. c #8A8F71",
",. c #93A274",
"<. c #ACA876",
"1. c #537289",
"2. c #786A87",
"3. c #6F708D",
"4. c #7A758A",
"5. c #7B7A92",
"6. c #9F5180",
"7. c #A55685",
"8. c #A85786",
"9. c #A95A86",
"0. c #AD5A8A",
"q. c #B15D8D",
"w. c #BF5093",
"e. c #B65F92",
"r. c #BB5E95",
"t. c #8E6F88",
"y. c #A46B85",
"u. c #A96E89",
"i. c #A97289",
"p. c #B2748F",
"a. c #BC6196",
"s. c #BF6399",
"d. c #B37791",
"f. c #B87A95",
"g. c #C15495",
"h. c #C25897",
"j. c #C35A99",
"k. c #C4649C",
"l. c #C7689F",
"z. c #C07F9B",
"x. c #C867A0",
"c. c #C868A0",
"v. c #63839C",
"b. c #7A869B",
"n. c #5B90B2",
"m. c #6A88A9",
"M. c #768AA6",
"N. c #7893AA",
"B. c #6895B7",
"V. c #7598B6",
"C. c #6E9FC6",
"Z. c #6DA4C9",
"A. c #76A6C9",
"S. c #6EADD5",
"D. c #7CB1D6",
"F. c #75B2DB",
"G. c #7BB4DB",
"H. c #75BDEC",
"J. c #7DBEE9",
"K. c #7FC1ED",
"L. c #7CC4F3",
"P. c #7BC7F8",
"I. c #7FCDFF",
"U. c #938E86",
"Y. c #999B9D",
"T. c #A0809E",
"R. c #AFA98D",
"E. c #808AA3",
"W. c #B9B9B9",
"Q. c #C4829E",
"!. c #CB87A4",
"~. c #CE88A6",
"^. c #D38BAA",
"/. c #DC92B1",
"(. c #E295B6",
"). c #E698B9",
"_. c #EB9BBD",
"`. c #C6CBBC",
"'. c #82AECF",
"]. c #83B4D7",
"[. c #EF9DC0",
"{. c #F09EC1",
"}. c #83C2ED",
"|. c #82C5F2",
" X c #86CAF8",
".X c #81CDFD",
"XX c #CBCCCB",
"oX c gray85",
"OX c #DFDFE0",
"+X c #F1F4EA",
"@X c #FEFEFE",
/* pixels */
"I.I.I.I.I.I.I.I.I.I.I.I.I.I.I.I.I.I.I.I.I.I.I.I.I.I.I.I.I.I.I.I.I.I.I.I.I.I.I.I.I.I.I.I.I.I.I.I.I.I.",
"I.I.I.I.I.I.I.I.I.I.I.I.I.I.I.I.I.I.I.I.I.I.I.I.I.I.I.I.I.I.I.I.I.I.I.I.I.I.I.I.I.I.I.I.I.I.I.I.I.I.",
"I.I.I.I.I.I.I.I.I.I.I.I.I.I.I.I.I.I.I.I.I.I.I.I.I.I.I.I.I.I.I.I.I.I.I.I.I.I.I.I.I.I.I.I.I.I.I.I.I.I.",
"I.I.I.I.I.I.I.I.I.I.I.I.I.I.I.I.I.I.I.I.I.I.I.I.I.I.I.I.I.I.I.I.I.I.I.I.I.I.I.I.I.I.I.I.I.I.I.I.I.I.",
"I.I.I.I.I.I.I.I.I.I.I.I.I.I.I.I.I.I.I.I.I.I.I.I.I.I.I.I.I.I.I.I.I.I.I.I.I.I.I.I.I.I.I.I.I.I.I.I.I.I.",
"I.I.I.I.I.I.I.I.I.I.I.I.I.I.I.I.I.I.I.I.I.I.I.I.I.I.I.I.I.I.I.I.I.I.I.I.I.I.I.I.I.I.I.I.I.I.I.I.I.I.",
"I.I.I.I.I.I.I.I.I.I.I.I.I.I.I.I.I.I.I.I.I.I.I.I.I.I.I.I.I.I.I.I.I.I.I.I.I.I.I.I.I.I.I.I.I.I.I.I.I.I.",
"I.I.I.I.I.I.I.I.I.I.I.I.I.I.I.I.I.I.I.I.I.I.I.I.I.I.I.I.I.I.I.I.I.I.I.I.I.I.I.I.I.I.I.I.I.I.I.I.I.I.",
"I.I.I.I.I.I.I.I.I.I.I.I.I.I.I.I.I.I.I.I.I.C.a 2 b.Z.K.I.I.I.I.I.I.I.I.I.I.I.I.I.I.I.I.I.I.I.I.I.I.I.",
"I.I.I.I.I.I.I.I.I.I.I.I.I.I.I.I.L.H.H.K.B.R ! ! ! Q 1 U.Z.P.I.I.I.I.I.I.I.I.I.I.I.I.I.I.I.I.I.I.I.I.",
"I.I.I.I.I.I.I.I.I.I.I.I.I.I.I.L.d R 5 4 W Q ! ! Q T 1 1 < - n.G.I.I.I.I.I.I.I.I.I.I.I.I.I.I.I.I.I.I.",
"I.I.I.I.I.I.I.I..XI.I.I.I.I.P.m.W ! ! ! ! Q 5 p x 0.k.l.c.l.a.0.l m.F.I.I.I.I.I.I.I.I.I.I.I.I.I.I.I.",
"I.I..X.X.XI.I.I.I.I..X.X].f 5 W ! ! ! ! 5 g r.c.c.l.B M l.c.c.l.c.c.0.t.F.I.I.I.I.I.I.I.I.I.I.I.I.I.",
"I.I..X.XI.I..X.XI.I..X.Xs ! ! ! ! ! ! 3 q.c.c.l.k.l._ ] a.a.c.c.c.c.c.c.y.m.P.I.I.I.I.I.I.I.I.I.I.I.",
"I.I.I..XZ.i.i.t.V.}. X.XV.R ! ! ! ! 3 0.j.c.s.f E m x g B / B c.c.c.l.l.l.k.t.P.I.I.I.I.I.I.I.I.I.I.",
"I.I..XM.6 x y.~.(.T.N.}..XS.3 ! ! 2 e.M ~ y.h P ^ F ' ] S | M c.c.l.c.l.l.l.k.5.|.I.I.I.I.I.I.I.I.I.",
"I..X|.% u u u e & c Q.d.V.H.Z.1 p k.x.) D ^ X.&.&.&.&.&.o.X k.l.c.c.c.c.c.c.x.x.3.I.I.I.I.I.I.I.I.I.",
"I..XS.z y.x g q 8 y r % p.; c 0.c.c.c.7.[ &.&.&.&.&.&.&.&.$.f k.c.c.l.c.c.c.s.6.g 1.A.|.I.I.I.I.I.I.",
"I.I.L.f.{.{.{.).!.u.g 7 O s.k.B u.c.m _ K &.&.&.&.o.&.&.&.&.$.j l.c.l.l.l.c Y I W.Y.C Z D.I.I.I.I.I.",
"I.I.I.t.u.y.u.d.z.!.)./.: c.9. ./ 0.{  .D $.&.] &.J $.&.&.&.%.L k.l.l.l.s } ' oXoXG . V C L.I.I.I.I.",
"I.I.I.G.e u u u t 8 7 @ = c.k.;.m 0.(  ./ ^ &.K &.X.[ &.o.o.&.X.9.c.x.c } @.<.@XXX<.Y.  G V.I.I.I.I.",
"I.I.I.I.m.# = * @ O 9 w # c.k.c.l.l.B ) M d &.^ o.&.K &.X.] &.o.7.c.k.K @.+.R.@XOX`.+XV =.B.I.I.I.I.",
"I.I.I.I.I.M._.{.{._.(.^.d.8.c.c.l.l.c.c.l.v o.o.[ %.K &.X.[ &.X.9.c.l O.@.+.:.@X@XXX,.,.XXZ.I.I..X.X",
"I.I.I.I.I.L.+ i g x c y.d.; c.c.l.l.c.c.l.k.^ $.L &.K &.X.] %.` a.l.b @.@.+.{ W.@X@X@X@XY.P.I.I..X.X",
"I.I.I.I.I.I.m.e r y u y y 0 q.c.c.c.c.c.c.c.-.&.K &.K &.] X.&.*.c.c.;.@.@.@.+.' ,.W.W.>.G.I.I.I..X.X",
"I.I.I.I.I.I.A.f.Q.d.u.N x h 7.c.c.c.c.c.c.c.s &.K &.J &.P $.o.v c.c.-.@.@.@.@.@...} } O.N.I.I.I.I.I.",
"I.I.I.I..X.Xn.!.~.~.!.Q.f.d.v c.c.c.c.c.c.c.k o.J %.L &.J &.U l.c.c.d @.@.@.@.@.^ ' @.@.} >.L..XI.I.",
"I.I.I.I.I.P.= w e w w w t 0 q.c.c.c.c.c.c.c.k.v x j I P P ] 9.l.c.c.x #.@.@.@.@.A H @.@.@.' A.I.I.I.",
"I.I.I.I.I.B.9 q q 6 6 i h $ l.c.l.c.c.c.c.c.c.l.c.c.c.q.z v l.l.c.c.x.I O.@.@.@.@.} A D D , I.I.I.I.",
"I.I.I.I.P.T.^./.(.)._.[./.6.c.c.c.c.l.c.l.c.c.c.c.c.l.c.l.l.c.c.c.c.x.r.Y @.@.@.@.@.@.@.@.:..XI.I.I.",
"I.I.I.I.N.).[.[.(.~.T.n : a.c.c.c.c.c.c.c.c.l.c.c.c.c.c.c.c.c.l.c.c.c.c.;.+.+.@.@.@.@.O.P A.I.I.I.I.",
"I.I.I. X> y.g * q w y y q k.c.c.l.l.c.c.c.c.c.c.c.c.c.l.c.c.c.c.c.c.c.c.-.+...+.+.O.O.>.}.I.I.I.I.I.",
"I.I.I.S.8 u u u u w O g c 0.x.x.k.g.g.g.j.l.l.c.c.c.c.l.x.x.x.x.c.x.c.c.b +. . . .+.>. X.XI.I.I.I.I.",
"I.I.I.B.u t q i N Q.).(.u.$ a.s.l.j.g.g.g.g.k.c.c.c.c.c.x.x.c.c.c.c.c.x.6.|  . . .' ].I..XI.I.I.I.I.",
".X.XI.1.x d./._.[.).y.& w = v.B.5.l k.h.g.w.w.g.k.c.c.c.x.x.x.x.x.j.j.g.k.I ....O.>.I.I.I.I.I.I.I.I.",
".X.X.XE.{.{._._.d.* t 0 m.P.I.I..XJ.m.9.j.g.w.w.g.j.j.k.k.k.j.g.g.g.g.g.r.a.a H -.J.I.I.I.I.I.I.I.I.",
"I.I.I.S.^./.u.% t u : H.I.I.I.I.I.I.I.F.z s.j.w.g.g.w.w.w.w.g.g.g.g.g.g.g.j.z G.I.I.I.I.I.I.I.I.I.I.",
"I.I.I.I.m.o t y e > K.I.I.I.I.I.I.I.I.I.L.b.v a.g.g.g.g.w.w.g.g.g.g.j.r.l M.|.I.I.I.I.I.I.I.I.I.I.I.",
"I.I.I.I.I.A.m.m.F.I.I.I.I.I.I.I.I.I.I.I.I..X}.N.z 0.h.j.g.j.j.j.w.6.t.V.K.I.I.I.I.I.I.I.I.I.I.I.I.I.",
"I.I.I.I.I.I.I.I.I.I.I.I.I.I.I.I.I.I.I.I.I.I.I.I.|.'.N.4.2.> 5.B.V.].P.P.I.I.I.I.I.I.I.I.I.I.I.I.I.I.",
"I.I.I.I.I.I.I.I.I.I.I.I.I.I.I.I.I.I.I.I.I.I.I.I.I.I.I.I..XI.I.I.I.I.I.I.I.I.I.I.I.I.I.I.I.I.I.I.I.I.",
"I.I.I.I.I.I.I.I.I.I.I.I.I.I.I.I.I.I.I.I.I.I.I.I.I.I.I.I.I.I.I.I.I.I.I.I.I.I.I.I.I.I.I.I.I.I.I.I.I.I.",
"I.I.I.I.I.I.I.I.I.I.I.I.I.I.I.I.I.I.I.I.I.I.I.I.I.I.I.I.I.I.I.I.I.I.I.I.I.I.I.I.I.I.I.I.I.I.I.I.I.I.",
"I.I.I.I.I.I.I.I.I.I.I.I.I.I.I.I.I.I.I.I.I.I.I.I.I.I.I.I.I.I.I.I.I.I.I.I.I.I.I.I.I.I.I.I.I.I.I.I.I.I.",
"I.I.I.I.I.I.I.I.I.I.I.I.I.I.I.I.I.I.I.I.I.I.I.I.I.I.I.I.I.I.I.I.I.I.I.I.I.I.I.I.I.I.I.I.I.I.I.I.I.I.",
"I.I.I.I.I.I.I.I.I.I..XI.I.I.I.I.I.I.I.I.I.I.I.I.I.I.I.I.I.I.I.I.I.I.I.I.I.I.I.I.I.I.I.I.I.I.I.I.I.I.",
"I.I.I.I.I.I.I.I.I.I.I.I.I.I.I.I.I.I.I.I.I.I.I.I.I.I.I.I.I.I.I.I.I.I.I.I.I.I..XI.I.I.I.I.I.I.I.I.I.I.",
"I.I.I.I.I.I.I.I.I.I.I.I.I.I.I.I.I.I.I.I.I.I.I.I.I.I.I.I.I.I.I.I.I.I.I.I.I.I.I.I.I.I.I.I.I.I.I.I.I.I.",
"I.I.I.I.I.I.I.I.I.I.I.I.I.I.I.I.I.I.I.I.I.I.I.I.I.I.I.I.I.I.I.I.I.I.I.I.I.I.I.I.I.I.I.I.I.I.I.I.I.I.",
"I.I.I.I.I.I.I.I.I.I.I.I.I.I.I.I.I.I.I.I.I.I.I.I.I.I.I.I.I.I.I.I.I.I.I.I.I.I.I.I.I.I.I.I.I.I.I.I.I.I."
};
