/* XPM */
static char *_f970c8f9daf42aba24142011e7855c4pTGrrIlKDMnrah37[] = {
/* columns rows colors chars-per-pixel */
"50 50 187 2 ",
"   c #010301",
".  c #0B0605",
"X  c #010B01",
"o  c #0C0C04",
"O  c #030C09",
"+  c #0B0C0B",
"@  c #120807",
"#  c #180F0A",
"$  c #011303",
"%  c #0A1204",
"&  c #011B04",
"*  c #03130A",
"=  c #0B140B",
"-  c #031A0C",
";  c #0A1C0B",
":  c #11140D",
">  c #101F0C",
",  c #0D0E11",
"<  c #0C1711",
"1  c #0C1E10",
"2  c #0D1E18",
"3  c #151513",
"4  c #1D1113",
"5  c #131B1A",
"6  c #1B1B1C",
"7  c #012203",
"8  c #032209",
"9  c #0A220C",
"0  c #0C290D",
"q  c #10210F",
"w  c #012614",
"e  c #0D2713",
"r  c #072A14",
"t  c #092911",
"y  c #0C2E1E",
"u  c #152117",
"i  c #182217",
"p  c #192C16",
"a  c #1C241C",
"s  c #132D1C",
"d  c #192A1B",
"f  c #093C1D",
"g  c #113916",
"h  c #12321D",
"j  c #1B301F",
"k  c #143D1F",
"l  c #1A3514",
"z  c #23251F",
"x  c #152C22",
"c  c #1F2823",
"v  c #173325",
"b  c #1E3225",
"n  c #1D3C23",
"m  c #1C3C2D",
"M  c #242423",
"N  c #2D2D2D",
"B  c #2B2223",
"V  c #203224",
"C  c #2F3D2E",
"Z  c #2A342B",
"A  c #303D29",
"S  c #32332D",
"D  c #2C3533",
"F  c #273830",
"G  c #2C3A32",
"H  c #313331",
"J  c #303A32",
"K  c #3B3E36",
"L  c #3B3B3A",
"P  c #024A1C",
"I  c #144225",
"U  c #1B4425",
"Y  c #1A462D",
"T  c #124B28",
"R  c #1D4A29",
"E  c #1C4A26",
"W  c #0F582A",
"Q  c #1C5327",
"!  c #16512B",
"~  c #1C532C",
"^  c #175B28",
"/  c #1C592B",
"(  c #1B4D31",
")  c #1D5332",
"_  c #175A31",
"`  c #1B5C33",
"'  c #224526",
"]  c #26452C",
"[  c #2A452C",
"{  c #224E2D",
"}  c #294A2D",
"|  c #245827",
" . c #24552D",
".. c #2D542D",
"X. c #235A2D",
"o. c #264331",
"O. c #2B4732",
"+. c #254D33",
"@. c #2D4C35",
"#. c #274239",
"$. c #234F38",
"%. c #334535",
"&. c #314B35",
"*. c #364238",
"=. c #3B443E",
"-. c #3D4F39",
";. c #235433",
":. c #2B5234",
">. c #245A34",
",. c #295933",
"<. c #235539",
"1. c #2B5339",
"2. c #26593A",
"3. c #2B5A39",
"4. c #33533B",
"5. c #3A513B",
"6. c #365B3C",
"7. c #3A5B3C",
"8. c #1E6030",
"9. c #2D643E",
"0. c #26643D",
"q. c #47423E",
"w. c #283E4D",
"e. c #2F5C47",
"r. c #345540",
"t. c #3D5543",
"y. c #345947",
"u. c #3C5B45",
"i. c #3E5948",
"p. c #2B6441",
"a. c #376543",
"s. c #3C6343",
"d. c #3E6A46",
"f. c #3F6B4B",
"g. c #327146",
"h. c #3E754B",
"j. c #444444",
"k. c #404B43",
"l. c #44414A",
"z. c #41484E",
"x. c #4C4F4D",
"c. c #46514C",
"v. c #49524D",
"b. c #455E48",
"n. c #485A4A",
"m. c #545454",
"M. c #575852",
"N. c #5C5C5C",
"B. c #5B5C56",
"V. c #625D59",
"C. c #416E45",
"Z. c #43654D",
"A. c #436A51",
"S. c #4A6C54",
"D. c #526851",
"F. c #467253",
"G. c #4E7755",
"H. c #477558",
"J. c #4E7A5D",
"K. c #457C54",
"L. c #53765E",
"P. c #537C5E",
"I. c #686C5B",
"U. c #5A7763",
"Y. c #567D62",
"T. c #5A7F60",
"R. c #616161",
"E. c #6C6C6A",
"W. c #727272",
"Q. c #59865D",
"!. c #4F8E63",
"~. c #558761",
"^. c #5C8567",
"/. c #5B8168",
"(. c #65856F",
"). c #63826C",
"_. c #6A846B",
"`. c #658671",
"'. c #7FCDFF",
"]. c #7FCDFF",
"[. c #818181",
"{. c #8C8C8C",
"}. c gray58",
"|. c gray60",
" X c gray64",
".X c #BBBBBB",
"XX c #CACACC",
/* pixels */
"'.'.'.'.'.'.'.'.].].].].].].].].].].].].].].].].].].'.'.'.'.'.'.].].].].].].].].].].].].'.'.'.'.'.'.",
"'.'.'.'.'.'.'.'.].].].].].].].].].].].].].].].].L ].'.'.'.'.'.'.].].].].].].].].].].].].'.'.'.'.'.'.",
"'.'.'.'.'.'.'.'.].].].].].].].].].].].].].].].    '.'.'.'.'.'.'.].].].].].].].].'.'.].].'.'.'.'.'.'.",
"'.'.'.'.'.'.'.'.].].].].].].].].].].].].].].].  s '.'.'.'.'.'.'.].].].].].].].].'.O : ].'.'.'.'.'.'.",
"].].].].3 '.'.'.].].].].'.'.'.'.].].].].].].'.D.,.].'.'.'.'.'.'.].].].].].].].].X 5.X '.'.'.'.'.'.'.",
"].].].].- I '.'.].].].].'.'.'.'.].].].].].].  T.X.5 '.'.'.'.'.'.].].].].].].].z.Q...X '.'.'.'.'.'.'.",
"].].].].X F.r.* ].].'.'.'.'.'.'.].].].].].].  d.Q X '.'.'.'.'.'.].].].].].].].. | 7.6 '.'.'.'.'.'.'.",
"].].].].].% 0.@.  '.'.'.'.'.'.'.].].].].].].t.R /   '.'.'.'.'.'.].].].].].].].C.| X '.'.'.'.'.'.'.'.",
"].].].].].].] 9.Y   ].].'.'.'.'.'.'.'.'.'.M.).2.3.G '.'.'.'.'.'.'.'.'.'.'.'.. C.[ k.'.'.'.'.'.'.'.'.",
"].].].].].].. u.H.@.].].'.'.'.'.'.'.'.'.'.M `.) 2.'.'.'.'.'.'.'.'.'.'.'.'.'.w.7.  '.'.'.'.'.'.'.'.'.",
"].].].].].].].K &.>.X ].'.'.'.'.'.'.'.'.'.V.b._ l '.'.'.'.'.'.'.'.'.'.'.'.].].M '.'.'.'.'.'.'.'.'.'.",
"].].].].].].].].'.  C ].'.'.'.'.'.'.'.'.'.'.% (   '.'.'.'.'.'.'.'.'.'.'.'.G c.  '.'.'.'.'.'.'.'.'.'.",
"].].].].].].].].'.'.p X '.'.'.'.'.'.'.'.].].].y   '.'.'.'.'.'.'.'.'.'.'.].%._.+ '.'.'.'.'.'.'.'.'.'.",
"].].].].].].].].'.'.O :.& '.'.'.'.'.'.'.].].].+   '.'.'.'.'.'.'.'.'.'.'.  _ @.'.'.'.'.'.'.'.'.'.'.'.",
"].].].].].].].].'.'.. ! ` b '.'.'.'.'.'.].].'.; e ].'.'.'.'.'.'.'.'.'.  +.^.* '.'.'.'.'.'.'.'.'.'.'.",
"].].  ].].].].].'.'.O <.,.:.<.'.'.'.'.'.].].d 6.~   '.'.'.'.'.'.'.'.'.O./ u '.'.'.'.'.'.'.'.'.'.'.'.",
"].].o v.x.].].].'.'.'.] X.,.A.$ '.'.'.'.].].% } Q 4.D '.'.'.'.'.].].X +.3.].].].].].].].'.'.'.'.].].",
"].].].X G.* ].].'.'.'.c ] ;.! A.'.'.'.'.].].- :.X.{ 1 ].'.'.'.'.].].8 X ].].].].].].].].'.'.'.'.].].",
"].].'.'.2 J.X ].'.'.'.'.].1.T (.. '.'.'.].].o.<.;.~ } ].'.'.'.'.].].$ . ].].].].].].].].'.'.'.'.].].",
"].].'.'.'.* J L '.'.'.'.'.'.= @.X '.'.'.].B.1.) ;.>.a.  '.'.'.'.].4.O.  ].].].].].].].].'.'.  Z ].].",
"].].].].].].  5 '.].].].'.'.'.  . '.'.'.'.E.4.) ) R Y.  '.'.'.'.u X.&.].'.'.'.'.].].'.'.O ).E X ].].",
"].].].].].].].O.s   ].].'.'.'.* s '.'.'.].].c  .^  .S.  '.'.'.$ ;.;.N ].'.'.'.'.].].'.X d.4.  '.].].",
"].].].].].].].  ) ,.X ].'.'.'.X ;.[ '.'.].].X 3.Q  .1.].].].  ;.;.F.  '.'.'.'.'.].  S.' = '.'.'.].].",
"].].].].].].].S } ^ :.a '.'.'.o ;.R b '.].].q.} / J.; ].].].d  .X./.  '.'.'.'.'.X Z.n = '.'.'.'.].].",
"].].].].].].].].$ P.7.j '.'.'.O :.>.+.O '.'.'.X ;.Z.= '.'.'.s >.` t.'.'.'.'.'.'.z 6 ].].].].].].].].",
"].].].].].].].].'.X h.3.* '.'.X L.,.{ r '.'.'.v.F & '.'.'.'.X <.~   '.'.'.'.'.  ].].].].].].].].].].",
"].].].].].].].].'.'.+ T.' '.'.'.+.g.<.U '.'.].].+ D '.'.].].X >.Z.K ].].'.  &.  ].].].].].].].].].].",
"].].].].].].].].'.'.'.'.X + '.'.* S.a. .'.'.].].O '.'.'.].].X +.-.].].  %.<.X '.].].].].].].].].].].",
"].].].].].].].].'.'.'.'.'.  '.'.].D F %.].].].% 9.'.'.'.].].X x ].].$ } 4.% ].].].].].].].].].].].].",
"].].].].].].].].'.'.'.'.'.% ; '.].].= X ].].z 4.9.'.'.'.].].o   ].= p.A.  ].].].].].].].].].].].].].",
"].].].].].].].].'.'.'.'.'.X ;.* '.'.  4.X ].h { } =.'.'.'.$ i.X '.    '.'.'.].].].].].].].].].].].].",
"].].].].].].].].'.'.'.'.'.$ <.s.  '.X <.E X I Q  .i '.'.X ,.) X '.M ].'.'.'.].].].].].].].].].].].].",
"].].].].].].].].].].].].].  O.:.X ].& ` R &.X { / *.].X u.;.q   y.  '.'.'.'.'.'.'.'.'.'.'.'.'.'.].].",
"].].].].].].].].].].].].].].X  .v '.- ) ` J.% 0 P ].k.n.g # A.` 9 '.'.'.'.'.'.'.'.'.'.'.'.'.'.'.].].",
"].].].].].].].].].].].].'.'.'.X 5.'.  | ;.;.&.X r '.> n $ K.{ ] C '.'.'.'.'.'.'.'.'.'.'.'.'.'.'.].].",
"].].].].].].].].].].].].'.'.'.'.X l.X 6.;.` U.X O X 4.$ [ | n   '.'.'.'.'.'.'.'.'.'.'.'.'.'.'.'.].].",
"].].].].].].].].'.'.'.'.'.'.'.'.4 X '.B { ^ I.;   w 9 $ !.#.* ].'.'.'.'.'.'.'.'.'.'.'.'.'.'.'.'.].].",
"].].].].].].].].'.'.'.'.'.'.'.'.=.( e o C >.X m 5 y.8 p ;.O ].].'.'.'.'.'.'.'.'.'.'.'.'.'.'.'.'.].].",
"].].].].].].].].'.'.'.'.'.'.'.'.'.&.;.~.  f   2   +.8 ; - ].].].'.'.'.'.'.'.'.'.'.'.'.'.'.'.'.'.].].",
"].].].].].].].].'.'.'.'.'.'.'.'.'.'.& E >.s   =.O     @ ].].].].'.'.'.'.'.'.'.'.'.'.'.'.'.'.'.'.].].",
"].].].].].].].].'.'.'.'.'.'.'.'.].].].  @.:.;.X ; * O.  ].].].].'.'.'.'.'.'.'.'.'.'.'.'.'.'.'.'.].].",
"].].].].].].].].'.'.'.'.'.'.'.'.].].].M $ [ ] O.X u.<.  ].].].].'.'.'.'.'.'.'.'.'.'.'.'.'.'.'.'.].].",
"].].].].].].].].'.'.'.'.'.'.'.'.].].].  O.7 & p X | ;.X ].].].].'.'.'.'.'.'.'.'.'.'.'.'.'.'.'.'.].].",
"].].].].].].].].'.'.'.'.'.'.'.'.].R.. .XXX  ;   , X X   4 ].].].'.'.'.'.'.'.'.'.'.'.'.'.'.'.'.'.].].",
"].].].].].].].].].].].].'.  + L . N m.m.{.{.}.{.[.}.  x.N. Xj.j.'.].].].'.'.'.'.'.'.'.'.'.'.'.'.].].",
"].].].].].].].].].].].].j.M   R.m.N.|.E.R.W.N.m.N.m.m.m.R.N.R.x.w..   ].'.'.'.'.'.'.'.'.'.'.'.'.].].",
"].].].].].].].].].].].].M L N L H H 6 N 6 N N j.E.m.B y.  N   H S L L j.  '.'.'.'.'.'.'.'.'.'.'.].].",
"].].].].].].].].].].].].].].].].].].].].].].].].].].].].].].].].].].].].'.'.'.'.'.'.'.'.'.'.'.'.].].",
"].].].].].].].].].].].].].].].].].].].].].].].].].].].].].].].].].].].].].].].].].].].].].].].].].].",
"].].].].].].].].].].].].].].].].].].].].].].].].].].].].].].].].].].].].].].].].].].].].].].].].].]."
};
